<?xml version="1.0" encoding="UTF-8" standalone="no"?>
<!DOCTYPE svg PUBLIC "-//W3C//DTD SVG 1.1//EN" "http://www.w3.org/Graphics/SVG/1.1/DTD/svg11.dtd">
<svg version="1.1" xmlns="http://www.w3.org/2000/svg" xmlns:xlink="http://www.w3.org/1999/xlink" preserveAspectRatio="xMidYMid meet" viewBox="0 0 340 478.1" width="340" height="478.1"><defs><path d="M-10.85 -9.3L329.15 -9.3L329.15 468.79L-10.85 468.79L-10.85 -9.3Z" id="cpxo5XYFj"></path><path d="M82.62 5.94L234.32 5.94L234.32 26.35L82.62 26.35L82.62 5.94Z" id="g2MGTyVzUW"></path><path d="M82.62 432.26L234.32 432.26L234.32 452.67L82.62 452.67L82.62 432.26Z" id="iMMWtmQly"></path><path d="M305.07 40.63C309.01 40.63 312.21 43.83 312.21 47.77C312.21 49.2 312.21 46.35 312.21 47.77C312.21 51.72 309.01 54.92 305.07 54.92C245 54.92 71.94 54.92 11.87 54.92C7.93 54.92 4.73 51.72 4.73 47.77C4.73 46.35 4.73 49.2 4.73 47.77C4.73 43.83 7.93 40.63 11.87 40.63C71.94 40.63 245 40.63 305.07 40.63Z" id="aEEHPVsNe"></path><path d="M303.71 93.53C307.65 93.53 310.85 96.73 310.85 100.68C310.85 102.1 310.85 99.25 310.85 100.68C310.85 104.62 307.65 107.82 303.71 107.82C243.64 107.82 70.58 107.82 10.51 107.82C6.57 107.82 3.37 104.62 3.37 100.68C3.37 99.25 3.37 102.1 3.37 100.68C3.37 96.73 6.57 93.53 10.51 93.53C70.58 93.53 243.64 93.53 303.71 93.53Z" id="e135MiMIAk"></path><path d="M305.07 146.53C309.01 146.53 312.21 149.72 312.21 153.67C312.21 155.1 312.21 152.24 312.21 153.67C312.21 157.61 309.01 160.81 305.07 160.81C245 160.81 71.94 160.81 11.87 160.81C7.93 160.81 4.73 157.61 4.73 153.67C4.73 152.24 4.73 155.1 4.73 153.67C4.73 149.72 7.93 146.53 11.87 146.53C71.94 146.53 245 146.53 305.07 146.53Z" id="a6LZ0kvu2"></path><path d="M305.07 199.53C309.01 199.53 312.21 202.73 312.21 206.67C312.21 208.1 312.21 205.24 312.21 206.67C312.21 210.62 309.01 213.81 305.07 213.81C245 213.81 71.94 213.81 11.87 213.81C7.93 213.81 4.73 210.62 4.73 206.67C4.73 205.24 4.73 208.1 4.73 206.67C4.73 202.73 7.93 199.53 11.87 199.53C71.94 199.53 245 199.53 305.07 199.53Z" id="a1y4xNFjxL"></path><path d="M305.07 252.53C309.01 252.53 312.21 255.73 312.21 259.67C312.21 261.1 312.21 258.25 312.21 259.67C312.21 263.62 309.01 266.82 305.07 266.82C245 266.82 71.94 266.82 11.87 266.82C7.93 266.82 4.73 263.62 4.73 259.67C4.73 258.25 4.73 261.1 4.73 259.67C4.73 255.73 7.93 252.53 11.87 252.53C71.94 252.53 245 252.53 305.07 252.53Z" id="a1fdZGMQAl"></path><path d="M305.07 305.53C309.01 305.53 312.21 308.73 312.21 312.68C312.21 314.1 312.21 311.25 312.21 312.68C312.21 316.62 309.01 319.82 305.07 319.82C245 319.82 71.94 319.82 11.87 319.82C7.93 319.82 4.73 316.62 4.73 312.68C4.73 311.25 4.73 314.1 4.73 312.68C4.73 308.73 7.93 305.53 11.87 305.53C71.94 305.53 245 305.53 305.07 305.53Z" id="b2U6W782hT"></path><path d="M305.07 358.53C309.01 358.53 312.21 361.73 312.21 365.67C312.21 367.1 312.21 364.24 312.21 365.67C312.21 369.62 309.01 372.82 305.07 372.82C245 372.82 71.94 372.82 11.87 372.82C7.93 372.82 4.73 369.62 4.73 365.67C4.73 364.24 4.73 367.1 4.73 365.67C4.73 361.73 7.93 358.53 11.87 358.53C71.94 358.53 245 358.53 305.07 358.53Z" id="e9CWN47o3"></path><path d="M305.07 396.53C309.01 396.53 312.21 399.73 312.21 403.67C312.21 405.1 312.21 402.24 312.21 403.67C312.21 407.62 309.01 410.81 305.07 410.81C245 410.81 71.94 410.81 11.87 410.81C7.93 410.81 4.73 407.62 4.73 403.67C4.73 402.24 4.73 405.1 4.73 403.67C4.73 399.73 7.93 396.53 11.87 396.53C71.94 396.53 245 396.53 305.07 396.53Z" id="a3LdcFXOG"></path><path d="M171.4 47.77C171.4 55.1 164.99 61.04 157.11 61.04C149.22 61.04 142.82 55.1 142.82 47.77C142.82 40.45 149.22 34.51 157.11 34.51C164.99 34.51 171.4 40.45 171.4 47.77Z" id="c1t2aey2Lx"></path><path d="M96.91 100.68C96.91 108 90.5 113.94 82.62 113.94C74.74 113.94 68.33 108 68.33 100.68C68.33 93.35 74.74 87.41 82.62 87.41C90.5 87.41 96.91 93.35 96.91 100.68Z" id="gphQy06cf"></path><path d="M248.61 100.68C248.61 108 242.2 113.94 234.32 113.94C226.44 113.94 220.03 108 220.03 100.68C220.03 93.35 226.44 87.41 234.32 87.41C242.2 87.41 248.61 93.35 248.61 100.68Z" id="dyHibE4L1"></path><path d="M60.58 206.67C60.58 213.99 54.18 219.94 46.29 219.94C38.41 219.94 32.01 213.99 32.01 206.67C32.01 199.35 38.41 193.4 46.29 193.4C54.18 193.4 60.58 199.35 60.58 206.67Z" id="c2hyvf1rYq"></path><path d="M118.2 206.67C118.2 213.99 111.8 219.94 103.91 219.94C96.03 219.94 89.63 213.99 89.63 206.67C89.63 199.35 96.03 193.4 103.91 193.4C111.8 193.4 118.2 199.35 118.2 206.67Z" id="f2dBJQ5yB"></path><path d="M181.94 206.67C181.94 213.99 175.54 219.94 167.65 219.94C159.77 219.94 153.37 213.99 153.37 206.67C153.37 199.35 159.77 193.4 167.65 193.4C175.54 193.4 181.94 199.35 181.94 206.67Z" id="d1tFtyRGh9"></path><path d="M236.84 206.67C236.84 213.99 230.44 219.94 222.55 219.94C214.67 219.94 208.27 213.99 208.27 206.67C208.27 199.35 214.67 193.4 222.55 193.4C230.44 193.4 236.84 199.35 236.84 206.67Z" id="aY0r1dcrB"></path><path d="M287.65 206.67C287.65 213.99 281.25 219.94 273.37 219.94C265.48 219.94 259.08 213.99 259.08 206.67C259.08 199.35 265.48 193.4 273.37 193.4C281.25 193.4 287.65 199.35 287.65 206.67Z" id="a4767KFxS"></path><path d="M89.63 312.68C89.63 320 83.23 325.94 75.34 325.94C67.46 325.94 61.05 320 61.05 312.68C61.05 305.35 67.46 299.41 75.34 299.41C83.23 299.41 89.63 305.35 89.63 312.68Z" id="bMwMHuWw"></path><path d="M172.76 312.68C172.76 320 166.35 325.94 158.47 325.94C150.59 325.94 144.18 320 144.18 312.68C144.18 305.35 150.59 299.41 158.47 299.41C166.35 299.41 172.76 305.35 172.76 312.68Z" id="clvGBzwkd"></path><path d="M248.61 312.68C248.61 320 242.2 325.94 234.32 325.94C226.44 325.94 220.03 320 220.03 312.68C220.03 305.35 226.44 299.41 234.32 299.41C242.2 299.41 248.61 305.35 248.61 312.68Z" id="f2bfKmcwD"></path><path d="M68.33 153.67C68.33 160.99 61.93 166.93 54.05 166.93C46.16 166.93 39.76 160.99 39.76 153.67C39.76 146.35 46.16 140.4 54.05 140.4C61.93 140.4 68.33 146.35 68.33 153.67Z" id="agmM8mRFW"></path><path d="M172.76 155.5C172.76 162.83 166.35 168.77 158.47 168.77C150.59 168.77 144.18 162.83 144.18 155.5C144.18 148.18 150.59 142.24 158.47 142.24C166.35 142.24 172.76 148.18 172.76 155.5Z" id="beJJ7GAKR"></path><path d="M265.41 153.67C265.41 160.99 259.01 166.93 251.12 166.93C243.24 166.93 236.84 160.99 236.84 153.67C236.84 146.35 243.24 140.4 251.12 140.4C259.01 140.4 265.41 146.35 265.41 153.67Z" id="b2OPXOosqt"></path><path d="M60.58 259.67C60.58 267 54.18 272.94 46.29 272.94C38.41 272.94 32.01 267 32.01 259.67C32.01 252.35 38.41 246.41 46.29 246.41C54.18 246.41 60.58 252.35 60.58 259.67Z" id="d41mbuOqw6"></path><path d="M118.2 259.67C118.2 267 111.8 272.94 103.91 272.94C96.03 272.94 89.63 267 89.63 259.67C89.63 252.35 96.03 246.41 103.91 246.41C111.8 246.41 118.2 252.35 118.2 259.67Z" id="a1TU8zPUwm"></path><path d="M181.94 257.41C181.94 250.09 175.54 244.14 167.65 244.14C159.77 244.14 153.37 250.09 153.37 257.41C153.37 264.73 159.77 270.67 167.65 270.67C175.54 270.67 181.94 264.73 181.94 257.41Z" id="b2C3sMtRU"></path><path d="M236.84 257.41C236.84 250.09 230.44 244.14 222.55 244.14C214.67 244.14 208.27 250.09 208.27 257.41C208.27 264.73 214.67 270.67 222.55 270.67C230.44 270.67 236.84 264.73 236.84 257.41Z" id="byDOtL7Lz"></path><path d="M287.65 259.67C287.65 267 281.25 272.94 273.37 272.94C265.48 272.94 259.08 267 259.08 259.67C259.08 252.35 265.48 246.41 273.37 246.41C281.25 246.41 287.65 252.35 287.65 259.67Z" id="b2uBrCWNu2"></path><path d="M92.55 365.67C92.55 372.99 86.15 378.94 78.27 378.94C70.38 378.94 63.98 372.99 63.98 365.67C63.98 358.35 70.38 352.41 78.27 352.41C86.15 352.41 92.55 358.35 92.55 365.67Z" id="cPmVUC8yF"></path><path d="M262.89 365.67C262.89 372.99 256.49 378.94 248.61 378.94C240.72 378.94 234.32 372.99 234.32 365.67C234.32 358.35 240.72 352.41 248.61 352.41C256.49 352.41 262.89 358.35 262.89 365.67Z" id="f1QlgtGaF5"></path><path d="M176.5 400.61C176.5 407.93 170.1 413.87 162.21 413.87C154.33 413.87 147.93 407.93 147.93 400.61C147.93 393.29 154.33 387.34 162.21 387.34C170.1 387.34 176.5 393.29 176.5 400.61Z" id="cwhUOiJGD"></path><path d="M-0.85 0.7L339.15 0.7L339.15 478.79L-0.85 478.79L-0.85 0.7Z" id="a3A0buxez4"></path><path d="M92.62 15.94L244.32 15.94L244.32 36.35L92.62 36.35L92.62 15.94Z" id="ciH9sdETj"></path><path d="M92.62 442.26L244.32 442.26L244.32 462.67L92.62 462.67L92.62 442.26Z" id="e1H1Y9WWqG"></path><path d="M315.07 50.63C319.01 50.63 322.21 53.83 322.21 57.77C322.21 59.2 322.21 56.35 322.21 57.77C322.21 61.72 319.01 64.92 315.07 64.92C255 64.92 81.94 64.92 21.87 64.92C17.93 64.92 14.73 61.72 14.73 57.77C14.73 56.35 14.73 59.2 14.73 57.77C14.73 53.83 17.93 50.63 21.87 50.63C81.94 50.63 255 50.63 315.07 50.63Z" id="d5N8CAFbPC"></path><path d="M313.71 103.53C317.65 103.53 320.85 106.73 320.85 110.68C320.85 112.1 320.85 109.25 320.85 110.68C320.85 114.62 317.65 117.82 313.71 117.82C253.64 117.82 80.58 117.82 20.51 117.82C16.57 117.82 13.37 114.62 13.37 110.68C13.37 109.25 13.37 112.1 13.37 110.68C13.37 106.73 16.57 103.53 20.51 103.53C80.58 103.53 253.64 103.53 313.71 103.53Z" id="bV6eRlWCx"></path><path d="M315.07 156.53C319.01 156.53 322.21 159.72 322.21 163.67C322.21 165.1 322.21 162.24 322.21 163.67C322.21 167.61 319.01 170.81 315.07 170.81C255 170.81 81.94 170.81 21.87 170.81C17.93 170.81 14.73 167.61 14.73 163.67C14.73 162.24 14.73 165.1 14.73 163.67C14.73 159.72 17.93 156.53 21.87 156.53C81.94 156.53 255 156.53 315.07 156.53Z" id="b1u6fYAzjC"></path><path d="M315.07 209.53C319.01 209.53 322.21 212.73 322.21 216.67C322.21 218.1 322.21 215.24 322.21 216.67C322.21 220.62 319.01 223.81 315.07 223.81C255 223.81 81.94 223.81 21.87 223.81C17.93 223.81 14.73 220.62 14.73 216.67C14.73 215.24 14.73 218.1 14.73 216.67C14.73 212.73 17.93 209.53 21.87 209.53C81.94 209.53 255 209.53 315.07 209.53Z" id="b6HGEL8Gb"></path><path d="M315.07 262.53C319.01 262.53 322.21 265.73 322.21 269.67C322.21 271.1 322.21 268.25 322.21 269.67C322.21 273.62 319.01 276.82 315.07 276.82C255 276.82 81.94 276.82 21.87 276.82C17.93 276.82 14.73 273.62 14.73 269.67C14.73 268.25 14.73 271.1 14.73 269.67C14.73 265.73 17.93 262.53 21.87 262.53C81.94 262.53 255 262.53 315.07 262.53Z" id="k2lZwimxb6"></path><path d="M315.07 315.53C319.01 315.53 322.21 318.73 322.21 322.68C322.21 324.1 322.21 321.25 322.21 322.68C322.21 326.62 319.01 329.82 315.07 329.82C255 329.82 81.94 329.82 21.87 329.82C17.93 329.82 14.73 326.62 14.73 322.68C14.73 321.25 14.73 324.1 14.73 322.68C14.73 318.73 17.93 315.53 21.87 315.53C81.94 315.53 255 315.53 315.07 315.53Z" id="d1Q80OEYNz"></path><path d="M315.07 368.53C319.01 368.53 322.21 371.73 322.21 375.67C322.21 377.1 322.21 374.24 322.21 375.67C322.21 379.62 319.01 382.82 315.07 382.82C255 382.82 81.94 382.82 21.87 382.82C17.93 382.82 14.73 379.62 14.73 375.67C14.73 374.24 14.73 377.1 14.73 375.67C14.73 371.73 17.93 368.53 21.87 368.53C81.94 368.53 255 368.53 315.07 368.53Z" id="e1TOyiSIb1"></path><path d="M315.07 406.53C319.01 406.53 322.21 409.73 322.21 413.67C322.21 415.1 322.21 412.24 322.21 413.67C322.21 417.62 319.01 420.81 315.07 420.81C255 420.81 81.94 420.81 21.87 420.81C17.93 420.81 14.73 417.62 14.73 413.67C14.73 412.24 14.73 415.1 14.73 413.67C14.73 409.73 17.93 406.53 21.87 406.53C81.94 406.53 255 406.53 315.07 406.53Z" id="ajUhBJj5F"></path><path d="M181.4 57.77C181.4 65.1 174.99 71.04 167.11 71.04C159.22 71.04 152.82 65.1 152.82 57.77C152.82 50.45 159.22 44.51 167.11 44.51C174.99 44.51 181.4 50.45 181.4 57.77Z" id="a9AVdx9mh8"></path><path d="M106.91 110.68C106.91 118 100.5 123.94 92.62 123.94C84.74 123.94 78.33 118 78.33 110.68C78.33 103.35 84.74 97.41 92.62 97.41C100.5 97.41 106.91 103.35 106.91 110.68Z" id="c1bTYDRkZ8"></path><path d="M258.61 110.68C258.61 118 252.2 123.94 244.32 123.94C236.44 123.94 230.03 118 230.03 110.68C230.03 103.35 236.44 97.41 244.32 97.41C252.2 97.41 258.61 103.35 258.61 110.68Z" id="cJznGXIau"></path><path d="M70.58 216.67C70.58 223.99 64.18 229.94 56.29 229.94C48.41 229.94 42.01 223.99 42.01 216.67C42.01 209.35 48.41 203.4 56.29 203.4C64.18 203.4 70.58 209.35 70.58 216.67Z" id="b1uYGTVnri"></path><path d="M128.2 216.67C128.2 223.99 121.8 229.94 113.91 229.94C106.03 229.94 99.63 223.99 99.63 216.67C99.63 209.35 106.03 203.4 113.91 203.4C121.8 203.4 128.2 209.35 128.2 216.67Z" id="bZoNB9RmM"></path><path d="M191.94 216.67C191.94 223.99 185.54 229.94 177.65 229.94C169.77 229.94 163.37 223.99 163.37 216.67C163.37 209.35 169.77 203.4 177.65 203.4C185.54 203.4 191.94 209.35 191.94 216.67Z" id="a9SokygwU"></path><path d="M246.84 216.67C246.84 223.99 240.44 229.94 232.55 229.94C224.67 229.94 218.27 223.99 218.27 216.67C218.27 209.35 224.67 203.4 232.55 203.4C240.44 203.4 246.84 209.35 246.84 216.67Z" id="l1sB0BtdKQ"></path><path d="M297.65 216.67C297.65 223.99 291.25 229.94 283.37 229.94C275.48 229.94 269.08 223.99 269.08 216.67C269.08 209.35 275.48 203.4 283.37 203.4C291.25 203.4 297.65 209.35 297.65 216.67Z" id="a3QqdSU1t"></path><path d="M99.63 322.68C99.63 330 93.23 335.94 85.34 335.94C77.46 335.94 71.05 330 71.05 322.68C71.05 315.35 77.46 309.41 85.34 309.41C93.23 309.41 99.63 315.35 99.63 322.68Z" id="aPvken31q"></path><path d="M182.76 322.68C182.76 330 176.35 335.94 168.47 335.94C160.59 335.94 154.18 330 154.18 322.68C154.18 315.35 160.59 309.41 168.47 309.41C176.35 309.41 182.76 315.35 182.76 322.68Z" id="c17KOaVLGa"></path><path d="M258.61 322.68C258.61 330 252.2 335.94 244.32 335.94C236.44 335.94 230.03 330 230.03 322.68C230.03 315.35 236.44 309.41 244.32 309.41C252.2 309.41 258.61 315.35 258.61 322.68Z" id="a2w6MjttjM"></path><path d="M78.33 163.67C78.33 170.99 71.93 176.93 64.05 176.93C56.16 176.93 49.76 170.99 49.76 163.67C49.76 156.35 56.16 150.4 64.05 150.4C71.93 150.4 78.33 156.35 78.33 163.67Z" id="a1SCA5yovY"></path><path d="M182.76 165.5C182.76 172.83 176.35 178.77 168.47 178.77C160.59 178.77 154.18 172.83 154.18 165.5C154.18 158.18 160.59 152.24 168.47 152.24C176.35 152.24 182.76 158.18 182.76 165.5Z" id="f3DWzTm9un"></path><path d="M275.41 163.67C275.41 170.99 269.01 176.93 261.12 176.93C253.24 176.93 246.84 170.99 246.84 163.67C246.84 156.35 253.24 150.4 261.12 150.4C269.01 150.4 275.41 156.35 275.41 163.67Z" id="b1RDNM7I6C"></path><path d="M70.58 269.67C70.58 277 64.18 282.94 56.29 282.94C48.41 282.94 42.01 277 42.01 269.67C42.01 262.35 48.41 256.41 56.29 256.41C64.18 256.41 70.58 262.35 70.58 269.67Z" id="aRKql1mwJ"></path><path d="M128.2 269.67C128.2 277 121.8 282.94 113.91 282.94C106.03 282.94 99.63 277 99.63 269.67C99.63 262.35 106.03 256.41 113.91 256.41C121.8 256.41 128.2 262.35 128.2 269.67Z" id="a10kXWI6UU"></path><path d="M191.94 267.41C191.94 260.09 185.54 254.14 177.65 254.14C169.77 254.14 163.37 260.09 163.37 267.41C163.37 274.73 169.77 280.67 177.65 280.67C185.54 280.67 191.94 274.73 191.94 267.41Z" id="cj7qdAhFX"></path><path d="M246.84 267.41C246.84 260.09 240.44 254.14 232.55 254.14C224.67 254.14 218.27 260.09 218.27 267.41C218.27 274.73 224.67 280.67 232.55 280.67C240.44 280.67 246.84 274.73 246.84 267.41Z" id="b2t81JRSvz"></path><path d="M297.65 269.67C297.65 277 291.25 282.94 283.37 282.94C275.48 282.94 269.08 277 269.08 269.67C269.08 262.35 275.48 256.41 283.37 256.41C291.25 256.41 297.65 262.35 297.65 269.67Z" id="aAUn3O7SL"></path><path d="M102.55 375.67C102.55 382.99 96.15 388.94 88.27 388.94C80.38 388.94 73.98 382.99 73.98 375.67C73.98 368.35 80.38 362.41 88.27 362.41C96.15 362.41 102.55 368.35 102.55 375.67Z" id="f1cXkzzVBG"></path><path d="M272.89 375.67C272.89 382.99 266.49 388.94 258.61 388.94C250.72 388.94 244.32 382.99 244.32 375.67C244.32 368.35 250.72 362.41 258.61 362.41C266.49 362.41 272.89 368.35 272.89 375.67Z" id="f4BPfooKkd"></path><path d="M186.5 410.61C186.5 417.93 180.1 423.87 172.21 423.87C164.33 423.87 157.93 417.93 157.93 410.61C157.93 403.29 164.33 397.34 172.21 397.34C180.1 397.34 186.5 403.29 186.5 410.61Z" id="b5dc5iXQbd"></path></defs><g><g><g><use xlink:href="#cpxo5XYFj" opacity="1" fill="#08300b" fill-opacity="1"></use><use xlink:href="#cpxo5XYFj" opacity="1" fill="#08300b" fill-opacity="1"></use><g><use xlink:href="#cpxo5XYFj" opacity="1" fill-opacity="0" stroke="#ffffff" stroke-width="32" stroke-opacity="1"></use></g></g><g><use xlink:href="#g2MGTyVzUW" opacity="1" fill="#ffffff" fill-opacity="1"></use></g><g><use xlink:href="#iMMWtmQly" opacity="1" fill="#ffffff" fill-opacity="1"></use></g><g><use xlink:href="#aEEHPVsNe" opacity="1" fill="#afb1ae" fill-opacity="1"></use></g><g><use xlink:href="#e135MiMIAk" opacity="1" fill="#afb1ae" fill-opacity="1"></use></g><g><use xlink:href="#a6LZ0kvu2" opacity="1" fill="#afb1ae" fill-opacity="1"></use></g><g><use xlink:href="#a1y4xNFjxL" opacity="1" fill="#afb1ae" fill-opacity="1"></use></g><g><use xlink:href="#a1fdZGMQAl" opacity="1" fill="#afb1ae" fill-opacity="1"></use></g><g><use xlink:href="#b2U6W782hT" opacity="1" fill="#afb1ae" fill-opacity="1"></use></g><g><use xlink:href="#e9CWN47o3" opacity="1" fill="#afb1ae" fill-opacity="1"></use></g><g><use xlink:href="#a3LdcFXOG" opacity="1" fill="#afb1ae" fill-opacity="1"></use></g><g><use xlink:href="#c1t2aey2Lx" opacity="1" fill="#ff0000" fill-opacity="1"></use></g><g><use xlink:href="#gphQy06cf" opacity="1" fill="#ff0000" fill-opacity="1"></use></g><g><use xlink:href="#dyHibE4L1" opacity="1" fill="#ff0000" fill-opacity="1"></use></g><g><use xlink:href="#c2hyvf1rYq" opacity="1" fill="#ff0000" fill-opacity="1"></use></g><g><use xlink:href="#f2dBJQ5yB" opacity="1" fill="#ff0000" fill-opacity="1"></use></g><g><use xlink:href="#d1tFtyRGh9" opacity="1" fill="#ff0000" fill-opacity="1"></use></g><g><use xlink:href="#aY0r1dcrB" opacity="1" fill="#ff0000" fill-opacity="1"></use></g><g><use xlink:href="#a4767KFxS" opacity="1" fill="#ff0000" fill-opacity="1"></use></g><g><use xlink:href="#bMwMHuWw" opacity="1" fill="#ff0000" fill-opacity="1"></use></g><g><use xlink:href="#clvGBzwkd" opacity="1" fill="#ff0000" fill-opacity="1"></use></g><g><use xlink:href="#f2bfKmcwD" opacity="1" fill="#ff0000" fill-opacity="1"></use></g><g><use xlink:href="#agmM8mRFW" opacity="1" fill="#0021ff" fill-opacity="1"></use></g><g><use xlink:href="#beJJ7GAKR" opacity="1" fill="#0021ff" fill-opacity="1"></use></g><g><use xlink:href="#b2OPXOosqt" opacity="1" fill="#0021ff" fill-opacity="1"></use></g><g><use xlink:href="#d41mbuOqw6" opacity="1" fill="#0021ff" fill-opacity="1"></use></g><g><use xlink:href="#a1TU8zPUwm" opacity="1" fill="#0021ff" fill-opacity="1"></use></g><g><use xlink:href="#b2C3sMtRU" opacity="1" fill="#0021ff" fill-opacity="1"></use></g><g><use xlink:href="#byDOtL7Lz" opacity="1" fill="#0021ff" fill-opacity="1"></use></g><g><use xlink:href="#b2uBrCWNu2" opacity="1" fill="#0021ff" fill-opacity="1"></use></g><g><use xlink:href="#cPmVUC8yF" opacity="1" fill="#0021ff" fill-opacity="1"></use></g><g><use xlink:href="#f1QlgtGaF5" opacity="1" fill="#0021ff" fill-opacity="1"></use></g><g><use xlink:href="#cwhUOiJGD" opacity="1" fill="#0021ff" fill-opacity="1"></use></g><g><use xlink:href="#a3A0buxez4" opacity="1" fill="#08300b" fill-opacity="1"></use><use xlink:href="#a3A0buxez4" opacity="1" fill="#08300b" fill-opacity="1"></use><g><use xlink:href="#a3A0buxez4" opacity="1" fill-opacity="0" stroke="#ffffff" stroke-width="32" stroke-opacity="1"></use></g></g><g><use xlink:href="#ciH9sdETj" opacity="1" fill="#ffffff" fill-opacity="1"></use></g><g><use xlink:href="#e1H1Y9WWqG" opacity="1" fill="#ffffff" fill-opacity="1"></use></g><g><use xlink:href="#d5N8CAFbPC" opacity="1" fill="#afb1ae" fill-opacity="1"></use></g><g><use xlink:href="#bV6eRlWCx" opacity="1" fill="#afb1ae" fill-opacity="1"></use></g><g><use xlink:href="#b1u6fYAzjC" opacity="1" fill="#afb1ae" fill-opacity="1"></use></g><g><use xlink:href="#b6HGEL8Gb" opacity="1" fill="#afb1ae" fill-opacity="1"></use></g><g><use xlink:href="#k2lZwimxb6" opacity="1" fill="#afb1ae" fill-opacity="1"></use></g><g><use xlink:href="#d1Q80OEYNz" opacity="1" fill="#afb1ae" fill-opacity="1"></use></g><g><use xlink:href="#e1TOyiSIb1" opacity="1" fill="#afb1ae" fill-opacity="1"></use></g><g><use xlink:href="#ajUhBJj5F" opacity="1" fill="#afb1ae" fill-opacity="1"></use></g><g><use xlink:href="#a9AVdx9mh8" opacity="1" fill="#ff0000" fill-opacity="1"></use></g><g><use xlink:href="#c1bTYDRkZ8" opacity="1" fill="#ff0000" fill-opacity="1"></use></g><g><use xlink:href="#cJznGXIau" opacity="1" fill="#ff0000" fill-opacity="1"></use></g><g><use xlink:href="#b1uYGTVnri" opacity="1" fill="#ff0000" fill-opacity="1"></use></g><g><use xlink:href="#bZoNB9RmM" opacity="1" fill="#ff0000" fill-opacity="1"></use></g><g><use xlink:href="#a9SokygwU" opacity="1" fill="#ff0000" fill-opacity="1"></use></g><g><use xlink:href="#l1sB0BtdKQ" opacity="1" fill="#ff0000" fill-opacity="1"></use></g><g><use xlink:href="#a3QqdSU1t" opacity="1" fill="#ff0000" fill-opacity="1"></use></g><g><use xlink:href="#aPvken31q" opacity="1" fill="#ff0000" fill-opacity="1"></use></g><g><use xlink:href="#c17KOaVLGa" opacity="1" fill="#ff0000" fill-opacity="1"></use></g><g><use xlink:href="#a2w6MjttjM" opacity="1" fill="#ff0000" fill-opacity="1"></use></g><g><use xlink:href="#a1SCA5yovY" opacity="1" fill="#0021ff" fill-opacity="1"></use></g><g><use xlink:href="#f3DWzTm9un" opacity="1" fill="#0021ff" fill-opacity="1"></use></g><g><use xlink:href="#b1RDNM7I6C" opacity="1" fill="#0021ff" fill-opacity="1"></use></g><g><use xlink:href="#aRKql1mwJ" opacity="1" fill="#0021ff" fill-opacity="1"></use></g><g><use xlink:href="#a10kXWI6UU" opacity="1" fill="#0021ff" fill-opacity="1"></use></g><g><use xlink:href="#cj7qdAhFX" opacity="1" fill="#0021ff" fill-opacity="1"></use></g><g><use xlink:href="#b2t81JRSvz" opacity="1" fill="#0021ff" fill-opacity="1"></use></g><g><use xlink:href="#aAUn3O7SL" opacity="1" fill="#0021ff" fill-opacity="1"></use></g><g><use xlink:href="#f1cXkzzVBG" opacity="1" fill="#0021ff" fill-opacity="1"></use></g><g><use xlink:href="#f4BPfooKkd" opacity="1" fill="#0021ff" fill-opacity="1"></use></g><g><use xlink:href="#b5dc5iXQbd" opacity="1" fill="#0021ff" fill-opacity="1"></use></g></g></g></svg>