<svg height="512" viewBox="0 0 64 64" width="512" xmlns="http://www.w3.org/2000/svg"><path d="m30 18h4a4 4 0 0 1 4 4v18a0 0 0 0 1 0 0h-12a0 0 0 0 1 0 0v-18a4 4 0 0 1 4-4z" fill="#d80027"/><circle cx="32" cy="12" fill="#ffda44" r="5"/><path d="m28 40h8a0 0 0 0 1 0 0v14a3 3 0 0 1 -3 3h-2a3 3 0 0 1 -3-3v-14a0 0 0 0 1 0 0z" fill="#cca400"/><path d="m12 18h4a4 4 0 0 1 4 4v18a0 0 0 0 1 0 0h-12a0 0 0 0 1 0 0v-18a4 4 0 0 1 4-4z" fill="#d80027"/><circle cx="14" cy="12" fill="#ffda44" r="5"/><path d="m10 40h8a0 0 0 0 1 0 0v14a3 3 0 0 1 -3 3h-2a3 3 0 0 1 -3-3v-14a0 0 0 0 1 0 0z" fill="#cca400"/><path d="m48 18h4a4 4 0 0 1 4 4v18a0 0 0 0 1 0 0h-12a0 0 0 0 1 0 0v-18a4 4 0 0 1 4-4z" fill="#d80027"/><circle cx="50" cy="12" fill="#ffda44" r="5"/><path d="m46 40h8a0 0 0 0 1 0 0v14a3 3 0 0 1 -3 3h-2a3 3 0 0 1 -3-3v-14a0 0 0 0 1 0 0z" fill="#cca400"/><g fill="#acabb1"><path d="m2 27h6v5h-6z"/><path d="m56 27h6v5h-6z"/><path d="m20 27h6v5h-6z"/><path d="m38 27h6v5h-6z"/></g><path d="m62 26h-5v-4a5 5 0 0 0 -3.9-4.87 6 6 0 1 0 -6.192 0 5 5 0 0 0 -3.908 4.87v4h-4v-4a5 5 0 0 0 -3.9-4.87 6 6 0 1 0 -6.192 0 5 5 0 0 0 -3.908 4.87v4h-4v-4a5 5 0 0 0 -3.9-4.87 6 6 0 1 0 -6.192 0 5 5 0 0 0 -3.908 4.87v4h-5a1 1 0 0 0 -1 1v5a1 1 0 0 0 1 1h5v7a1 1 0 0 0 1 1h1v13a4 4 0 0 0 4 4h2a4 4 0 0 0 4-4v-13h1a1 1 0 0 0 1-1v-7h4v7a1 1 0 0 0 1 1h1v13a4 4 0 0 0 4 4h2a4 4 0 0 0 4-4v-13h1a1 1 0 0 0 1-1v-7h4v7a1 1 0 0 0 1 1h1v13a4 4 0 0 0 4 4h2a4 4 0 0 0 4-4v-13h1a1 1 0 0 0 1-1v-7h5a1 1 0 0 0 1-1v-5a1 1 0 0 0 -1-1zm-12-18a4 4 0 1 1 -4 4 4 4 0 0 1 4-4zm-18 0a4 4 0 1 1 -4 4 4 4 0 0 1 4-4zm-18 0a4 4 0 1 1 -4 4 4 4 0 0 1 4-4zm-11 23v-3h4v3zm14 23a2 2 0 0 1 -2 2h-2a2 2 0 0 1 -2-2v-13h6zm2-15h-10v-17a3 3 0 0 1 3-3h4a3 3 0 0 1 3 3zm2-8v-3h4v3zm14 23a2 2 0 0 1 -2 2h-2a2 2 0 0 1 -2-2v-13h6zm2-15h-10v-17a3 3 0 0 1 3-3h4a3 3 0 0 1 3 3zm2-8v-3h4v3zm14 23a2 2 0 0 1 -2 2h-2a2 2 0 0 1 -2-2v-13h6zm2-15h-10v-17a3 3 0 0 1 3-3h4a3 3 0 0 1 3 3zm6-8h-4v-3h4z" fill="#231f20"/><path d="m14 36h-3a1 1 0 0 0 0 2h3a1 1 0 0 0 0-2z" fill="#231f20"/><circle cx="17" cy="37" fill="#231f20" r="1"/></svg>